<svg id="Layer_1" data-name="Layer 1" xmlns="http://www.w3.org/2000/svg" viewBox="0 0 286.63 52.14"><defs><style>.cls-1{fill:#dee1e2;}</style></defs><title>fish_on</title><path class="cls-1" d="M110.21,184.19v9.07h15v11.88h-15v17.58H95V172.31h31.61v11.88Z" transform="translate(-95.02 -171.47)"/><path class="cls-1" d="M134,222.73V172.31h15.19v50.41Z" transform="translate(-95.02 -171.47)"/><path class="cls-1" d="M194.09,207.47a14.56,14.56,0,0,1-2.69,8.75,15.94,15.94,0,0,1-7.54,5.55,33.18,33.18,0,0,1-11.67,1.83,38.12,38.12,0,0,1-14.48-2.67V207.12a28.61,28.61,0,0,0,7,3.74,20.58,20.58,0,0,0,7.14,1.42,7,7,0,0,0,3.87-.9,2.93,2.93,0,0,0,1.37-2.62,3.55,3.55,0,0,0-.69-2.16,6.75,6.75,0,0,0-2.07-1.74,38.66,38.66,0,0,0-5.15-2.21Q157,198,157,187.53a14.12,14.12,0,0,1,5.55-11.69q5.55-4.38,14.91-4.38,2.64,0,4.85.21t4,.53q1.81.32,5.08,1.2v12.83a26,26,0,0,0-12.52-3.48,7.72,7.72,0,0,0-4.08.95,2.92,2.92,0,0,0-1.55,2.6,3.26,3.26,0,0,0,1.25,2.62,23.38,23.38,0,0,0,5.22,2.69q7.84,3.16,11.09,6.93A13.21,13.21,0,0,1,194.09,207.47Z" transform="translate(-95.02 -171.47)"/><path class="cls-1" d="M232.87,222.73V203.92H215.43v18.81H200.24V172.31h15.19V191h17.44V172.31h15.19v50.41Z" transform="translate(-95.02 -171.47)"/><path class="cls-1" d="M326,197.38A27.91,27.91,0,0,1,322.69,211a23.32,23.32,0,0,1-9.14,9.32,27.62,27.62,0,0,1-26.07.11,22.76,22.76,0,0,1-9.05-9,26.63,26.63,0,0,1-3.23-13.17,29.05,29.05,0,0,1,3.27-13.85,23.23,23.23,0,0,1,9.18-9.51,26.7,26.7,0,0,1,13.43-3.36,25.94,25.94,0,0,1,13,3.22,21.93,21.93,0,0,1,8.82,9.18A28.77,28.77,0,0,1,326,197.38Zm-16.1.42q0-6.22-2.39-9.81a7.47,7.47,0,0,0-6.54-3.59,8.27,8.27,0,0,0-7.07,3.45q-2.53,3.45-2.53,9.74t2.51,9.6a8,8,0,0,0,6.84,3.45,7.83,7.83,0,0,0,4.75-1.55,9.91,9.91,0,0,0,3.27-4.43A18.32,18.32,0,0,0,309.86,197.8Z" transform="translate(-95.02 -171.47)"/><path class="cls-1" d="M368.33,222.73,350.54,198.4a57.91,57.91,0,0,1-3.45-5.2H347q.21,3.73.21,8.37v21.16H333.1V172.31h14.34l17.05,23.13.77,1.09q.46.63.91,1.3t.86,1.3a8,8,0,0,1,.62,1.13h.14a45.69,45.69,0,0,1-.21-5.34V172.31h14.06v50.41Z" transform="translate(-95.02 -171.47)"/></svg>